<?xml version="1.0" standalone="no"?>
<!DOCTYPE svg PUBLIC "-//W3C//DTD SVG 20010904//EN"
 "http://www.w3.org/TR/2001/REC-SVG-20010904/DTD/svg10.dtd">
<svg version="1.0" xmlns="http://www.w3.org/2000/svg"
 width="1920.000000pt" height="353.000000pt" viewBox="0 0 1920.000000 353.000000"
 preserveAspectRatio="xMidYMid meet">

<g transform="translate(0.000000,353.000000) scale(0.100000,-0.100000)"
fill="#000000" stroke="none">
<path d="M1077 2745 c-524 -230 -815 -893 -631 -1440 61 -181 147 -318 280
-445 42 -40 69 -68 61 -64 -29 16 -176 166 -198 200 -11 19 -25 34 -30 34 -5
0 -9 7 -9 15 0 8 -5 15 -11 15 -5 0 -8 4 -4 9 3 6 -1 13 -8 18 -8 4 -22 22
-31 38 -10 17 -14 21 -11 10 4 -11 10 -28 12 -38 3 -9 9 -17 14 -17 5 0 9 -9
9 -20 0 -28 -18 -25 -26 5 -3 14 -10 22 -15 19 -5 -3 -12 2 -15 10 -3 9 -17
16 -29 16 -13 0 -26 6 -28 13 -3 7 -6 5 -6 -5 -1 -20 -16 -24 -26 -8 -3 6 0
10 7 10 8 1 5 7 -7 16 -11 8 -19 23 -17 32 2 14 1 14 -7 3 -7 -11 -12 -8 -25
15 -8 16 -15 26 -16 22 -2 -38 109 -176 131 -162 7 4 10 3 6 -4 -11 -16 4 -44
19 -38 8 3 13 2 11 -2 -3 -11 144 -152 159 -152 8 0 14 -4 14 -10 0 -5 6 -10
14 -10 8 0 16 -4 18 -8 3 -9 102 -68 163 -98 22 -10 43 -23 46 -27 3 -5 8 -8
10 -7 2 1 16 -3 30 -8 43 -17 221 -69 277 -82 121 -28 404 -27 527 1 210 48
488 185 617 304 20 19 41 35 45 35 4 1 17 12 28 26 11 14 35 42 53 62 56 62
94 154 100 238 4 65 1 80 -22 129 -78 159 -320 233 -546 168 -69 -20 -84 -33
-39 -33 69 0 107 -44 108 -125 1 -38 -41 -118 -82 -156 -29 -27 -136 -89 -154
-89 -5 0 -24 -5 -43 -10 -162 -43 -356 -24 -516 52 -34 15 -66 28 -72 28 -7 0
-12 4 -12 8 0 10 -50 37 -62 34 -5 -1 -8 2 -8 7 0 4 -17 20 -37 33 -64 42
-187 172 -217 230 -7 12 -27 50 -45 82 -78 142 -112 368 -80 527 6 30 12 65
15 79 5 28 65 182 73 190 3 3 14 21 25 40 10 19 31 52 47 72 16 20 29 39 29
42 0 5 55 67 79 89 53 49 71 64 110 88 59 38 44 36 -52 -6z m-600 -1721 c-3
-3 -12 -4 -19 -1 -8 3 -5 6 6 6 11 1 17 -2 13 -5z"/>
<path d="M1575 2631 c-22 -11 -36 -20 -32 -20 12 -1 77 27 77 33 0 8 0 8 -45
-13z"/>
<path d="M1478 2596 c-56 -27 -80 -45 -73 -56 3 -5 0 -12 -6 -16 -8 -4 -9 -3
-5 4 21 34 -37 -1 -87 -52 -74 -75 -119 -145 -146 -229 -41 -124 -33 -287 19
-402 11 -24 20 -49 20 -55 0 -6 7 -13 15 -16 8 -4 15 -13 15 -21 0 -22 129
-147 178 -172 24 -12 45 -21 46 -19 24 38 26 86 26 536 0 263 0 481 0 486 0 5
7 3 15 -4 12 -10 16 -9 21 6 4 11 9 22 11 27 6 10 4 9 -49 -17z"/>
<path d="M1487 1613 c-11 -10 -8 -43 3 -43 6 0 10 11 10 25 0 26 -2 29 -13 18z"/>
<path d="M1510 1541 c8 -5 33 -12 55 -15 28 -4 33 -3 15 2 -46 16 -86 23 -70
13z"/>
<path d="M3200 835 l0 -175 30 0 30 0 0 70 0 70 58 0 c53 0 61 -3 90 -33 24
-25 32 -42 32 -70 0 -36 1 -37 35 -37 l35 0 0 53 c0 48 -4 57 -35 87 l-35 34
35 36 c31 32 35 42 35 88 l0 52 -35 0 c-34 0 -35 -1 -35 -38 0 -30 -7 -45 -33
-70 -29 -28 -39 -32 -90 -32 l-57 0 0 70 0 70 -30 0 -30 0 0 -175z"/>
<path d="M3847 992 c-14 -15 -17 -42 -17 -159 0 -180 -6 -173 157 -173 159 0
153 -7 153 177 0 180 6 173 -157 173 -103 0 -122 -3 -136 -18z m223 -157 l0
-105 -90 0 -90 0 0 105 0 105 90 0 90 0 0 -105z"/>
<path d="M4470 835 l0 -175 30 0 30 0 0 70 0 70 58 0 c53 0 61 -3 90 -33 24
-25 32 -42 32 -70 0 -36 1 -37 35 -37 l35 0 0 53 c0 48 -4 57 -35 87 l-35 34
35 36 c31 32 35 42 35 88 l0 52 -35 0 c-34 0 -35 -1 -35 -38 0 -30 -7 -45 -33
-70 -29 -28 -39 -32 -90 -32 l-57 0 0 70 0 70 -30 0 -30 0 0 -175z"/>
<path d="M5090 943 l0 -68 60 -40 60 -40 0 -67 0 -68 35 0 35 0 0 69 0 68 60
42 60 42 0 65 0 64 -35 0 -35 0 0 -52 c0 -52 -1 -54 -45 -81 l-44 -28 -46 31
c-43 30 -45 33 -45 80 0 49 -1 50 -30 50 l-30 0 0 -67z"/>
<path d="M5720 835 l0 -175 138 0 c122 0 141 2 155 18 25 27 23 110 -3 137
l-20 22 20 18 c15 14 20 31 20 70 0 80 -9 85 -173 85 l-137 0 0 -175z m240 70
l0 -35 -90 0 -90 0 0 35 0 35 90 0 90 0 0 -35z m0 -140 l0 -35 -90 0 -90 0 0
35 0 35 90 0 90 0 0 -35z"/>
<path d="M6360 835 l0 -175 145 0 145 0 0 35 0 35 -115 0 -115 0 0 35 0 35
105 0 105 0 0 35 0 35 -105 0 -105 0 0 35 0 35 115 0 115 0 0 35 0 35 -145 0
-145 0 0 -175z"/>
<path d="M7440 887 l0 -123 53 -52 c49 -49 56 -52 103 -52 47 0 53 3 102 53
l52 53 0 122 0 122 -30 0 -30 0 0 -103 0 -103 -38 -37 c-47 -46 -69 -46 -110
-4 -32 33 -32 33 -32 140 l0 107 -35 0 -35 0 0 -123z"/>
<path d="M8080 835 l0 -175 145 0 145 0 0 35 0 35 -115 0 -115 0 0 35 0 35
105 0 105 0 0 35 0 35 -105 0 -105 0 0 35 0 35 115 0 115 0 0 35 0 35 -145 0
-145 0 0 -175z"/>
<path d="M8700 835 l0 -175 29 0 c29 0 30 2 33 53 l3 52 49 3 c45 3 52 0 87
-34 22 -21 39 -46 39 -56 0 -14 8 -18 35 -18 33 0 35 2 35 33 0 21 -8 41 -20
52 l-20 18 20 22 c17 18 20 35 20 107 0 118 0 118 -173 118 l-137 0 0 -175z
m240 50 l0 -56 -87 3 -88 3 -3 53 -3 52 90 0 91 0 0 -55z"/>
<path d="M9320 975 l0 -35 60 0 60 0 0 -140 0 -140 35 0 35 0 0 140 0 140 60
0 60 0 0 35 0 35 -155 0 -155 0 0 -35z"/>
<path d="M9940 835 l0 -175 30 0 30 0 0 175 0 175 -30 0 -30 0 0 -175z"/>
<path d="M10340 835 l0 -175 30 0 29 0 3 118 3 117 89 -117 c82 -110 91 -118
122 -118 l34 0 0 175 0 175 -35 0 -34 0 -3 -116 -3 -115 -85 115 c-78 106 -88
115 -117 116 l-33 0 0 -175z"/>
<path d="M11022 957 l-52 -53 0 -122 0 -122 35 0 35 0 0 55 0 55 90 0 90 0 0
-55 c0 -54 0 -55 30 -55 l30 0 0 175 0 175 -103 0 -103 0 -52 -53z m196 -69
l-3 -53 -87 -3 c-85 -3 -88 -2 -88 20 0 12 14 37 32 55 29 30 37 33 90 33 l59
0 -3 -52z"/>
<path d="M11610 835 l0 -175 30 0 29 0 3 118 3 117 89 -117 c82 -110 91 -118
122 -118 l34 0 0 175 0 175 -35 0 -34 0 -3 -116 -3 -115 -85 115 c-78 106 -88
115 -117 116 l-33 0 0 -175z"/>
<path d="M12230 975 l0 -35 60 0 60 0 1 -132 c1 -73 1 -136 0 -140 0 -5 15 -8
34 -8 l35 0 0 140 0 140 60 0 60 0 0 35 0 35 -155 0 -155 0 0 -35z"/>
<path d="M12860 835 l0 -175 30 0 30 0 0 175 0 175 -30 0 -30 0 0 -175z"/>
<path d="M13267 992 c-21 -23 -24 -161 -5 -180 8 -8 49 -12 120 -12 l108 0 0
-35 0 -35 -90 0 c-73 0 -90 3 -90 15 0 10 -10 15 -30 15 -27 0 -30 -3 -30 -33
0 -58 20 -67 157 -67 148 0 153 3 153 107 0 98 -7 103 -143 103 l-107 0 0 35
0 35 90 0 c73 0 90 -3 90 -15 0 -10 11 -15 35 -15 33 0 35 2 35 33 0 58 -20
67 -157 67 -103 0 -122 -3 -136 -18z"/>
<path d="M14370 835 l0 -175 30 0 30 0 0 116 c0 74 4 113 10 109 6 -3 28 -33
50 -66 56 -81 75 -80 138 7 l47 66 3 -116 3 -116 34 0 35 0 0 175 0 175 -34 0
c-31 0 -39 -7 -95 -85 -34 -47 -63 -85 -65 -85 -1 0 -29 38 -62 85 -53 77 -62
85 -91 85 l-33 0 0 -175z"/>
<path d="M15080 835 l0 -175 145 0 145 0 0 35 0 35 -115 0 -115 0 0 35 0 35
105 0 105 0 0 35 0 35 -105 0 -105 0 0 35 0 35 115 0 115 0 0 35 0 35 -145 0
-145 0 0 -175z"/>
<path d="M15690 835 l0 -175 30 0 30 0 0 175 0 175 -30 0 -30 0 0 -175z"/>
<path d="M16107 992 c-21 -23 -24 -161 -5 -180 8 -8 49 -12 120 -12 l108 0 0
-35 0 -35 -90 0 c-73 0 -90 3 -90 15 0 10 -10 15 -30 15 -27 0 -30 -3 -30 -33
0 -58 20 -67 157 -67 148 0 153 3 153 107 0 98 -7 103 -143 103 l-107 0 0 35
0 35 90 0 c73 0 90 -3 90 -15 0 -10 11 -15 35 -15 33 0 35 2 35 33 0 58 -20
67 -157 67 -103 0 -122 -3 -136 -18z"/>
<path d="M16710 975 l0 -35 60 0 60 0 0 -140 0 -140 35 0 35 0 0 140 0 140 60
0 60 0 0 35 0 35 -155 0 -155 0 0 -35z"/>
<path d="M17340 835 l0 -175 29 0 c29 0 30 2 33 53 l3 52 49 3 c45 3 52 0 87
-34 22 -21 39 -46 39 -56 0 -14 8 -18 35 -18 33 0 35 2 35 33 0 21 -8 41 -20
52 l-20 18 20 22 c17 18 20 35 20 107 0 118 0 118 -173 118 l-137 0 0 -175z
m240 50 l0 -56 -87 3 -88 3 -3 53 -3 52 90 0 91 0 0 -55z"/>
<path d="M18012 957 l-52 -53 0 -122 0 -122 35 0 35 0 0 55 0 56 88 -3 87 -3
3 -52 c3 -51 4 -53 33 -53 l29 0 0 175 0 175 -103 0 -103 0 -52 -53z m196 -69
l-3 -53 -87 -3 c-85 -3 -88 -2 -88 20 0 12 14 37 32 55 29 30 37 33 90 33 l59
0 -3 -52z"/>
<path d="M18627 992 c-21 -23 -24 -161 -5 -180 8 -8 49 -12 120 -12 l108 0 0
-35 0 -35 -90 0 c-73 0 -90 3 -90 15 0 10 -10 15 -30 15 -27 0 -30 -3 -30 -33
0 -58 20 -67 157 -67 148 0 153 3 153 107 0 98 -7 103 -143 103 l-107 0 0 35
0 35 90 0 c73 0 90 -3 90 -15 0 -10 11 -15 35 -15 33 0 35 2 35 33 0 58 -20
67 -157 67 -103 0 -122 -3 -136 -18z"/>
</g>
</svg>
